<svg aria-hidden="true" style="position: absolute; width: 0; height: 0; overflow: hidden;" version="1.1" xmlns="http://www.w3.org/2000/svg" xmlns:xlink="http://www.w3.org/1999/xlink">
<defs>
<symbol id="icon-antenna-1" viewBox="0 0 64 64">
<title>antenna-1</title>
<path fill="#2e2f42" style="fill: var(--color1, #2e2f42)" d="M61.546 44.195l-16.886-17.010 1.874-9.23c0.484 0.188 0.998 0.287 1.517 0.29h0.013c0.015 0 0.033 0 0.051 0 2.385 0 4.318-1.933 4.318-4.318s-1.933-4.318-4.318-4.318c-2.385 0-4.318 1.933-4.318 4.318 0 0.519 0.092 1.017 0.26 1.478l-0.010-0.030-9.92 1.21-16.182-16.265c-0.192-0.196-0.458-0.318-0.753-0.32h-0c-0.28 0.001-0.548 0.113-0.747 0.31l-3.025 3.008c-0.193 0.193-0.313 0.46-0.313 0.755s0.119 0.561 0.313 0.755v0l1.628 1.65c-2.286 4.124-3.631 9.044-3.631 14.277 0 8.212 3.312 15.65 8.673 21.051l-0.002-0.002c0.084 0.081 0.183 0.147 0.291 0.195-0.064 0.328-0.102 0.706-0.104 1.092v12.376h-12.8c-2.945 0.003-5.331 2.389-5.335 5.333v2.133c0 0.59 0.478 1.067 1.067 1.067h49.067c0.589 0 1.067-0.478 1.067-1.067v-2.133c-0.004-2.944-2.39-5.33-5.334-5.333h-12.8v-5.484c2.005 0.42 4.048 0.635 6.097 0.64 5.16-0.006 10.009-1.326 14.234-3.645l-0.154 0.078 1.637 1.646c0.198 0.202 0.469 0.318 0.753 0.32 0.28-0.002 0.548-0.113 0.746-0.31l3.025-3.009c0.193-0.193 0.312-0.46 0.312-0.754s-0.119-0.561-0.312-0.754v0zM46.56 12.466c0.386-0.383 0.917-0.62 1.504-0.62 1.178 0 2.133 0.955 2.133 2.133s-0.955 2.133-2.133 2.133c-0 0-0 0-0.001 0h-0.006c-1.173-0.006-2.123-0.959-2.123-2.133 0-0.591 0.241-1.127 0.629-1.513l0-0h-0.004zM44.049 19.476l-1.197 5.89-2.351-2.364 3.548-3.527zM42.837 17.672l-3.84 3.817-2.97-2.987 6.81-0.83zM48.008 57.6c1.767 0 3.2 1.433 3.2 3.2v0 1.067h-46.933v-1.067c0-1.767 1.433-3.2 3.2-3.2h40.533zM33.075 53.333v2.134h-10.667v-2.134h10.667zM22.408 51.2v-8.107c0-2.587 2.393-4.693 5.333-4.693 2.941 0 5.334 2.106 5.334 4.693v8.107h-10.667zM35.208 47.808v-4.715c0-3.764-3.35-6.826-7.466-6.826-0.035-0.001-0.076-0.001-0.118-0.001-2.705 0-5.080 1.413-6.427 3.542l-0.018 0.031c-4.719-4.963-7.622-11.692-7.622-19.099 0-4.628 1.133-8.992 3.138-12.828l-0.073 0.153 37.204 37.417c-3.645 1.894-7.959 3.004-12.532 3.004-2.157 0-4.257-0.247-6.272-0.715l0.187 0.036zM57.786 46.441l-42.114-42.361 1.51-1.504 15.87 15.96c0.007 0 0.011 0.013 0.019 0.019l26.229 26.382-1.514 1.504z"></path>
<path fill="#4d5ae5" style="fill: var(--color2, #4d5ae5)" d="M27.751 40.533h-0.010c-0.002 0-0.003 0-0.005 0-1.767 0-3.2 1.433-3.2 3.2 0 1.766 1.43 3.197 3.195 3.2h0.010c0.002 0 0.003 0 0.005 0 1.767 0 3.2-1.433 3.2-3.2 0-1.766-1.43-3.197-3.195-3.2h-0zM28.498 44.49c-0.193 0.191-0.458 0.309-0.751 0.309-0.589 0-1.067-0.478-1.067-1.067 0-0.001 0-0.003 0-0.004v0c0.004-0.584 0.477-1.057 1.061-1.061h0c0.587 0.003 1.061 0.48 1.061 1.067 0 0.295-0.12 0.563-0.314 0.756l-0 0h0.010z"></path>
</symbol>
<symbol id="icon-astronaut-1" viewBox="0 0 64 64">
<title>astronaut-1</title>
<path fill="#4d5ae5" style="fill: var(--color2, #4d5ae5)" d="M63.948 9.048c-0.127-0.382-0.454-0.664-0.854-0.724l-0.006-0.001-3.822-0.556-1.71-3.462c-0.358-0.73-1.553-0.73-1.912 0l-1.71 3.462-3.82 0.556c-0.519 0.078-0.913 0.521-0.913 1.056 0 0.299 0.123 0.569 0.321 0.763l2.765 2.695-0.653 3.806c-0.068 0.4 0.096 0.804 0.424 1.043 0.332 0.241 0.765 0.271 1.124 0.081l3.418-1.797 3.417 1.797c0.144 0.077 0.314 0.122 0.495 0.122 0.59 0 1.068-0.478 1.068-1.068 0-0.063-0.005-0.124-0.016-0.184l0.001 0.006-0.652-3.806 2.766-2.695c0.199-0.194 0.322-0.465 0.322-0.765 0-0.118-0.019-0.231-0.054-0.337l0.002 0.008zM59.022 11.702c-0.25 0.244-0.366 0.598-0.306 0.944l0.382 2.228-2.001-1.051c-0.144-0.078-0.315-0.123-0.497-0.123s-0.353 0.046-0.503 0.126l0.006-0.003-2.001 1.051 0.381-2.228c0.010-0.054 0.015-0.117 0.015-0.18 0-0.299-0.123-0.57-0.321-0.763l-1.62-1.579 2.238-0.325c0.348-0.050 0.647-0.269 0.803-0.584l1-2.026 1.002 2.026c0.156 0.315 0.456 0.534 0.804 0.584l2.237 0.325-1.618 1.579z"></path>
<path fill="#4d5ae5" style="fill: var(--color2, #4d5ae5)" d="M52.267 41.044h-2.134v2.134h2.134v-2.134z"></path>
<path fill="#4d5ae5" style="fill: var(--color2, #4d5ae5)" d="M52.267 45.311h-2.134v2.134h2.134v-2.135z"></path>
<path fill="#4d5ae5" style="fill: var(--color2, #4d5ae5)" d="M54.4 43.178h-2.133v2.133h2.133v-2.133z"></path>
<path fill="#4d5ae5" style="fill: var(--color2, #4d5ae5)" d="M50.134 43.178h-2.134v2.133h2.134v-2.133z"></path>
<path fill="#4d5ae5" style="fill: var(--color2, #4d5ae5)" d="M44.8 52.778h-2.133v2.133h2.133v-2.133z"></path>
<path fill="#4d5ae5" style="fill: var(--color2, #4d5ae5)" d="M44.8 57.045h-2.133v2.133h2.133v-2.133z"></path>
<path fill="#4d5ae5" style="fill: var(--color2, #4d5ae5)" d="M46.934 54.911h-2.134v2.134h2.134v-2.135z"></path>
<path fill="#4d5ae5" style="fill: var(--color2, #4d5ae5)" d="M42.667 54.911h-2.134v2.134h2.134v-2.135z"></path>
<path fill="#4d5ae5" style="fill: var(--color2, #4d5ae5)" d="M32 48.511h-2.133v2.134h2.133v-2.135z"></path>
<path fill="#4d5ae5" style="fill: var(--color2, #4d5ae5)" d="M32 52.778h-2.133v2.133h2.133v-2.133z"></path>
<path fill="#4d5ae5" style="fill: var(--color2, #4d5ae5)" d="M34.133 50.645h-2.133v2.133h2.133v-2.133z"></path>
<path fill="#4d5ae5" style="fill: var(--color2, #4d5ae5)" d="M29.867 50.645h-2.134v2.133h2.134v-2.133z"></path>
<path fill="#4d5ae5" style="fill: var(--color2, #4d5ae5)" d="M11.733 12.244h-2.133v2.133h2.133v-2.133z"></path>
<path fill="#4d5ae5" style="fill: var(--color2, #4d5ae5)" d="M11.733 16.51h-2.133v2.134h2.133v-2.133z"></path>
<path fill="#4d5ae5" style="fill: var(--color2, #4d5ae5)" d="M13.866 14.377h-2.133v2.134h2.133v-2.134z"></path>
<path fill="#4d5ae5" style="fill: var(--color2, #4d5ae5)" d="M9.6 14.377h-2.134v2.134h2.134v-2.134z"></path>
<path fill="#2e2f42" style="fill: var(--color1, #2e2f42)" d="M49.43 28.319c-0.56-0.753-1.397-1.273-2.358-1.408l-0.019-0.002c-0.153-0.023-0.329-0.036-0.508-0.036-0.822 0-1.578 0.279-2.18 0.747l0.008-0.006-2.504 1.919-3.796 2.835-2.715-1.082c4.842-2.172 8.227-7.016 8.227-12.64 0-7.646-6.245-13.866-13.922-13.866s-13.923 6.22-13.923 13.866c0 2.771 0.828 5.348 2.24 7.517l-5.538-0.048c-0.017 0-0.030 0.009-0.047 0.010-0.105 0.004-0.209 0.025-0.31 0.061-0.026 0.010-0.052 0.015-0.077 0.027-0.013 0.005-0.025 0.006-0.038 0.013l-6.468 3.193-3.787 1.822c-0.048 0.022-0.090 0.045-0.129 0.072l0.003-0.002c-0.963 0.647-1.588 1.733-1.588 2.964 0 0.593 0.145 1.153 0.402 1.645l-0.009-0.020c0.44 0.858 1.19 1.49 2.112 1.779 0.321 0.105 0.691 0.166 1.074 0.166 0.616 0 1.196-0.157 1.701-0.432l-0.019 0.009 2.776-1.476 4.528-2.339 2.714-0.015-10.884 10.83c0 0.002-0.002 0.002-0.003 0.003l-2.677 2.666c-0.605 0.598-0.98 1.428-0.98 2.346 0 0.004 0 0.007 0 0.011v-0.001c0 0.89 0.347 1.727 0.98 2.357 0.65 0.647 1.504 0.97 2.358 0.97 0.856 0 1.709-0.323 2.36-0.97l2.629-2.617 3.481-2.6 1.802 1.794-6.204 6.177c-0.605 0.598-0.98 1.428-0.98 2.346 0 0.003 0 0.006 0 0.010v-0.001c0 0.89 0.348 1.727 0.98 2.358 0.65 0.646 1.505 0.97 2.36 0.97 0.854 0 1.71-0.324 2.36-0.97l6.964-6.933c0-0.002 0-0.003 0.002-0.004l2.019-2-0.008-0.007c0.013-0.013 0.031-0.017 0.044-0.031l10.332-11.316 6.942 0.987c0.041 0.006 0.088 0.009 0.136 0.009 0.14 0 0.274-0.028 0.396-0.077l-0.007 0.003c0.035-0.013 0.066-0.030 0.1-0.047 0.038-0.019 0.078-0.030 0.114-0.054l6.427-4.267c0.024-0.016 0.036-0.041 0.059-0.059 0.025-0.020 0.057-0.028 0.080-0.050l2.544-2.383c0.694-0.651 1.127-1.574 1.127-2.598 0-0.801-0.264-1.54-0.711-2.134l0.007 0.009zM4.26 35.54c-0.346 0.186-0.74 0.223-1.116 0.104-0.589-0.185-1.009-0.727-1.009-1.367 0-0.472 0.228-0.89 0.581-1.151l0.004-0.003 2.628-1.264 0.632 1.849 0.266 0.776-1.985 1.055zM11.255 31.885l-3.097 1.6-0.51-1.494-0.367-1.073 4.053-2-0.079 2.967zM41.454 18.644c0 1.837-0.438 3.57-1.198 5.119l-8.363-3.798c-0.087-1.15-0.684-2.145-1.564-2.768l-0.012-0.008 2.928-9.72c4.755 1.511 8.209 5.947 8.209 11.174zM17.876 18.644c0-6.47 5.289-11.734 11.789-11.734 0.506 0 1 0.043 1.49 0.105l-2.864 9.507c-0.038 0-0.075-0.011-0.114-0.011-0 0-0.001 0-0.001 0-2.064 0-3.738 1.67-3.744 3.732v0.001c0.006 2.063 1.68 3.733 3.744 3.733 0 0 0.001 0 0.001 0h-0c1.389 0 2.589-0.766 3.236-1.889l7.725 3.51c-2.15 2.893-5.59 4.78-9.473 4.78-6.5 0-11.789-5.265-11.789-11.734zM29.789 20.244c0 0.882-0.724 1.6-1.612 1.6-0.001 0-0.003 0-0.004 0-0.885 0-1.603-0.715-1.608-1.6v-0c0-0.882 0.723-1.6 1.612-1.6 0.888 0 1.612 0.718 1.612 1.6zM4.929 50.292c-0.22 0.217-0.522 0.351-0.855 0.351-0.332 0-0.634-0.133-0.853-0.349l0 0c-0.218-0.215-0.353-0.514-0.353-0.845s0.135-0.629 0.353-0.844l0-0 1.924-1.917 1.702 1.695-1.917 1.91zM11.357 57.759c-0.22 0.218-0.522 0.352-0.856 0.352-0.333 0-0.635-0.134-0.854-0.35l0 0c-0.218-0.215-0.352-0.514-0.352-0.845s0.135-0.629 0.352-0.844l0-0 1.926-1.918 1.703 1.695-1.919 1.91zM18.321 50.822l-0.004 0.002-3.53 3.52-1.703-1.695 3.527-3.512s0.002 0 0.003-0.002c0.080-0.080 0.13-0.176 0.18-0.27 0.013-0.028 0.040-0.052 0.052-0.080 0.033-0.083 0.038-0.171 0.050-0.258 0.007-0.049 0.028-0.095 0.028-0.145 0-0.071-0.025-0.14-0.040-0.211-0.013-0.064-0.013-0.13-0.037-0.191-0.040-0.1-0.11-0.189-0.183-0.275-0.020-0.024-0.027-0.054-0.050-0.076h-0.001l-0.002-0.004-3.214-3.2c-0.034-0.034-0.078-0.048-0.116-0.077-0.051-0.042-0.108-0.080-0.168-0.112l-0.006-0.003c-0.053-0.025-0.115-0.048-0.18-0.064l-0.007-0.001c-0.060-0.019-0.13-0.033-0.202-0.040l-0.004-0c-0.012-0.001-0.027-0.001-0.041-0.001-0.053 0-0.104 0.004-0.155 0.011l0.006-0.001c-0.077 0.007-0.148 0.021-0.217 0.042l0.008-0.002c-0.072 0.026-0.134 0.056-0.192 0.092l0.004-0.002c-0.040 0.022-0.085 0.030-0.122 0.057l-3.547 2.648-1.801-1.794 4.798-4.773 8.72 8.578-1.854 1.838zM31.958 36.788c-0.030-0.004-0.060 0.008-0.090 0.006-0.015-0.001-0.034-0.001-0.052-0.001-0.063 0-0.125 0.006-0.184 0.016l0.006-0.001c-0.139 0.022-0.264 0.069-0.374 0.138l0.004-0.002c-0.060 0.036-0.114 0.075-0.166 0.123-0.026 0.022-0.057 0.033-0.080 0.058l-9.397 10.292-8.656-8.514 5.666-5.636c0.193-0.193 0.312-0.46 0.312-0.754 0-0.59-0.478-1.068-1.068-1.068-0.001 0-0.002 0-0.003 0h0l-4.437 0.026 0.055-3.215 6.208 0.053c2.527 2.593 6.054 4.202 9.957 4.202 0.002 0 0.005 0 0.007 0h-0c0.875 0 1.728-0.090 2.559-0.245 0.080 0.064 0.159 0.129 0.26 0.17l4.818 1.92 0.305 1.516 0.357 1.77-6.006-0.854zM40.041 37.145l-0.627-3.116 2.893-2.16 1.894 2.513-4.16 2.763zM47.548 31.483l-1.676 1.57-1.862-2.473 1.663-1.274c0.31-0.24 0.701-0.336 1.085-0.286 0.387 0.054 0.728 0.256 0.96 0.568 0.434 0.584 0.36 1.398-0.17 1.895z"></path>
<path fill="#2e2f42" style="fill: var(--color1, #2e2f42)" d="M27.204 37.088l-4.286-4.267c-0.193-0.192-0.459-0.311-0.753-0.311s-0.56 0.119-0.753 0.311l-4.285 4.267c-0.193 0.194-0.312 0.461-0.312 0.757s0.119 0.563 0.313 0.757l-0-0 4.285 4.266c0.193 0.192 0.459 0.311 0.753 0.311s0.56-0.119 0.753-0.311l4.286-4.266c0.194-0.193 0.315-0.461 0.315-0.757s-0.12-0.563-0.314-0.756l-0-0zM22.166 40.606l-2.773-2.762 2.773-2.761 2.775 2.761-2.775 2.762z"></path>
<path fill="#2e2f42" style="fill: var(--color1, #2e2f42)" d="M34.328 10.142l-0.515 2.071c0.142 0.035 3.475 0.904 3.475 4.298h2.134c0-4.034-3.331-5.931-5.093-6.37z"></path>
<path fill="#2e2f42" style="fill: var(--color1, #2e2f42)" d="M39.422 18.644h-2.133v2.134h2.133v-2.134z"></path>
</symbol>
<symbol id="icon-clock-1" viewBox="0 0 64 64">
<title>clock-1</title>
<path fill="#2e2f42" style="fill: var(--color1, #2e2f42)" d="M62.593 30.602c-0.003-16.905-13.711-30.606-30.616-30.602s-30.606 13.711-30.602 30.616c0.003 13.316 8.614 25.102 21.299 29.152 0.121 0.038 0.247 0.058 0.374 0.057 0.241-0.001 0.477-0.065 0.685-0.188 0.27-0.16 0.472-0.414 0.566-0.713l7.73-24.5c2.113-0.011 3.817-1.733 3.806-3.846s-1.733-3.817-3.846-3.807c-0.568 0.002-1.129 0.133-1.64 0.383l-10.212-10.213c-0.507-0.489-1.314-0.475-1.803 0.031-0.478 0.495-0.478 1.278 0 1.773l10.206 10.218c-0.783 1.599-0.335 3.528 1.073 4.618l-7.365 23.346c-14.556-5.362-22.009-21.508-16.647-36.063s21.508-22.009 36.063-16.647c14.556 5.362 22.009 21.508 16.647 36.063-2.62 7.111-8.002 12.862-14.924 15.947l-0.796-3.748c-0.145-0.689-0.823-1.129-1.512-0.983-0.217 0.046-0.419 0.148-0.585 0.296l-7.674 6.851c-0.526 0.468-0.573 1.274-0.105 1.801 0.152 0.171 0.348 0.298 0.566 0.368l9.797 3.127c0.67 0.215 1.389-0.153 1.604-0.824 0.068-0.212 0.080-0.438 0.034-0.655l-0.782-3.678c11.329-4.776 18.684-15.884 18.658-28.178v0zM31.984 29.327c0.704 0 1.275 0.571 1.275 1.275s-0.571 1.275-1.275 1.275c-0.705 0-1.275-0.571-1.275-1.275s0.571-1.275 1.275-1.275zM36.185 59.055l4.368-3.897 1.206 5.681-5.574-1.784z"></path>
<path fill="#4d5ae5" style="fill: var(--color2, #4d5ae5)" d="M30.709 6.37v2.551c0 0.705 0.571 1.275 1.275 1.275s1.275-0.571 1.275-1.275v-2.551c0-0.704-0.571-1.275-1.275-1.275s-1.275 0.571-1.275 1.275z"></path>
<path fill="#4d5ae5" style="fill: var(--color2, #4d5ae5)" d="M7.752 29.327c-0.705 0-1.275 0.571-1.275 1.275s0.571 1.275 1.275 1.275h2.551c0.705 0 1.275-0.571 1.275-1.275s-0.571-1.275-1.275-1.275h-2.551z"></path>
<path fill="#4d5ae5" style="fill: var(--color2, #4d5ae5)" d="M56.216 31.878c0.705 0 1.275-0.571 1.275-1.275s-0.571-1.275-1.275-1.275h-2.551c-0.704 0-1.275 0.571-1.275 1.275s0.571 1.275 1.275 1.275h2.551z"></path>
</symbol>
<symbol id="icon-diagram-1" viewBox="0 0 64 64">
<title>diagram-1</title>
<path fill="#4d5ae5" style="fill: var(--color2, #4d5ae5)" d="M29.851 29.929h2.132v9.595h-2.132v-9.595z"></path>
<path fill="#4d5ae5" style="fill: var(--color2, #4d5ae5)" d="M38.38 34.194h2.132v5.331h-2.132v-5.331z"></path>
<path fill="#4d5ae5" style="fill: var(--color2, #4d5ae5)" d="M21.322 37.392h2.132v2.132h-2.132v-2.132z"></path>
<path fill="#4d5ae5" style="fill: var(--color2, #4d5ae5)" d="M14.925 36.326h2.132v3.198h-2.132v-3.198z"></path>
<path fill="#2e2f42" style="fill: var(--color1, #2e2f42)" d="M3.198 56.582h51.173c1.766 0 3.198-1.432 3.198-3.198v-4.264c0-1.766-1.432-3.198-3.198-3.198h-1.066v-26.587l6.056-5.737c1.405 0.693 3.107 0.272 4.026-0.997s0.791-3.017-0.305-4.137-2.84-1.287-4.13-0.396c-1.289 0.892-1.747 2.584-1.085 4.004l-4.563 4.325v-2.46c0-1.766-1.432-3.198-3.198-3.198h-42.644c-1.766 0-3.198 1.432-3.198 3.198v31.983h-1.066c-1.766 0-3.198 1.432-3.198 3.198v4.264c0 1.766 1.432 3.198 3.198 3.198zM60.768 9.673c0.589 0 1.066 0.477 1.066 1.066s-0.477 1.066-1.066 1.066c-0.589 0-1.066-0.477-1.066-1.066s0.477-1.066 1.066-1.066zM6.397 13.938c0-0.589 0.477-1.066 1.066-1.066h42.644c0.589 0 1.066 0.477 1.066 1.066v4.477l-2.132 2.026v-4.371c0-0.589-0.477-1.066-1.066-1.066h-38.38c-0.589 0-1.066 0.477-1.066 1.066v26.653c0 0.589 0.477 1.066 1.066 1.066h38.38c0.589 0 1.066-0.477 1.066-1.066v-19.349l2.132-2.020v24.567h-44.777v-31.983zM15.992 27.797c-1.442-0.004-2.709 0.957-3.093 2.347s0.21 2.865 1.451 3.601c1.24 0.736 2.82 0.551 3.856-0.452l3.706 1.859c0.43 0.215 0.953 0.114 1.273-0.245l7.878-8.863 7.744 5.803c0.415 0.311 0.995 0.278 1.372-0.079l6.73-6.375v16.262h-36.248v-24.52h36.248v5.321l-7.543 7.143-7.809-5.854c-0.444-0.332-1.068-0.27-1.436 0.144l-7.986 8.985-2.985-1.493c0.022-0.128 0.035-0.257 0.041-0.387 0-1.766-1.432-3.198-3.198-3.198zM17.058 30.995c0 0.589-0.477 1.066-1.066 1.066s-1.066-0.477-1.066-1.066c0-0.589 0.477-1.066 1.066-1.066s1.066 0.477 1.066 1.066zM23.454 48.053h10.661v1.066c0 0.589-0.477 1.066-1.066 1.066h-8.529c-0.589 0-1.066-0.477-1.066-1.066v-1.066zM2.132 49.119c0-0.589 0.477-1.066 1.066-1.066h18.124v1.066c0 1.766 1.432 3.198 3.198 3.198h8.529c1.766 0 3.198-1.432 3.198-3.198v-1.066h18.124c0.589 0 1.066 0.477 1.066 1.066v4.264c0 0.589-0.477 1.066-1.066 1.066h-51.173c-0.589 0-1.066-0.477-1.066-1.066v-4.264z"></path>
</symbol>
</defs>
</svg>
